<svg width="167" height="184" viewBox="0 0 167 184" fill="none" xmlns="http://www.w3.org/2000/svg">
<g clip-path="url(#clip0_2_2)">
<path fill-rule="evenodd" clip-rule="evenodd" d="M68.8 15.42C56.92 23.349 46.889 30.233 46.509 30.718C45.882 31.518 45.817 33.004 45.809 46.624C45.798 64.54 47.038 61.617 36.8 67.869C35.26 68.809 32.92 70.306 31.6 71.194C30.28 72.083 27.995 73.527 26.522 74.405C22.87 76.58 23 75.998 23 90.21V102.582L24.005 103.24C25.067 103.936 27.043 103.794 28.062 102.949C28.49 102.594 28.6 100.178 28.6 91.185V79.867L30.1 78.712C30.925 78.077 32.86 76.788 34.4 75.848C35.94 74.907 38.73 73.164 40.6 71.972C42.47 70.781 44.63 69.436 45.4 68.983C52.081 65.05 51.4 67.276 51.4 49.359V34.206L52.504 33.223C53.111 32.682 57.206 29.832 61.604 26.89C81.698 13.445 88.459 8.86 89.225 8.158C91.529 6.045 91.59 6.52599 91.696 27.796C91.749 38.39 91.937 47.316 92.114 47.632C92.459 48.249 97.332 52.306 100.48 54.597C103.106 56.509 102.987 56.138 102.994 62.438C103.001 69.254 103.28 69.789 106.505 69.166L108.4 68.8L108.509 61.442C108.634 53.068 108.861 53.73 104.892 50.901C101.815 48.707 97.952 45.564 97.53 44.91C97.349 44.63 97.11 34.68 97 22.8L96.8 1.2L93.6 1.102L90.4 1.004L68.8 15.42ZM81.065 29.752C80.204 30.297 80.313 33.801 81.212 34.458C83.469 36.108 86.125 34.358 85.665 31.525C85.343 29.538 82.892 28.593 81.065 29.752ZM80.969 41.637C79.073 43.922 82.037 47.898 84.44 46.294C85.887 45.327 86.277 42.083 85.026 41.414C83.857 40.789 81.569 40.914 80.969 41.637ZM81.07 53.126C79.979 54.287 79.957 55.789 81.016 56.925C82.131 58.122 84.334 58.115 85.177 56.911C87.207 54.013 83.47 50.57 81.07 53.126ZM81.171 64.232C80.141 65.37 80.149 68.081 81.186 68.839C83.004 70.169 85.8 69.025 85.8 66.951C85.8 63.846 83.006 62.205 81.171 64.232ZM93.091 63.816C91.096 64.617 91.103 68.279 93.101 68.975C96.037 69.999 97.656 68.924 97.29 66.193C96.934 63.537 95.627 62.797 93.091 63.816ZM81.264 75.583C80.219 76.375 80.184 79.706 81.212 80.458C83.174 81.893 85.8 80.486 85.8 78C85.8 75.506 83.196 74.119 81.264 75.583ZM92.943 75.451C91.189 76.093 91.115 79.76 92.84 80.546C95.524 81.769 97.4 80.735 97.4 78.033C97.4 75.347 95.783 74.41 92.943 75.451ZM103.39 76.426C103.176 76.99 103 79.41 103 81.802C103 86.953 103.317 86.64 97.866 86.868C95.52 86.966 93.195 87.13 92.7 87.231L91.8 87.415V126.794C91.8 165.316 91.783 166.181 91.026 166.586C89.843 167.219 29.715 167.155 29.08 166.52C27.198 164.638 28.709 161.162 32.17 159.415C40.606 155.157 41.817 146.139 35.974 131.092C35.438 129.713 35 128.398 35 128.17C35 127.942 34.65 126.989 34.223 126.05C33.796 125.112 33.184 123.637 32.864 122.772C31.48 119.036 30.549 116.733 30.044 115.8C29.747 115.25 29.3 114.17 29.051 113.4C27.297 107.973 23.476 109.114 21.391 115.687C21.127 116.519 20.689 117.56 20.417 118C20.145 118.44 19.601 119.79 19.208 121C18.816 122.21 18.361 123.38 18.199 123.6C18.037 123.82 17.68 124.72 17.405 125.6C17.13 126.48 16.667 127.74 16.376 128.4C9.305 144.439 10.508 154.888 19.994 159.813C22.884 161.314 22.986 161.458 22.994 164.051C23.003 167.243 23.178 167.193 11.814 167.249C6.39099 167.276 1.57599 167.417 1.11599 167.563C-0.568006 168.098 -0.462001 171.77 1.26 172.554C3.334 173.5 164.448 173.152 165.4 172.2C166.87 170.73 166.511 168.167 164.699 167.2C163.244 166.423 163.193 166.322 162.97 163.722C162.64 159.882 161.335 158.128 157.406 156.242C154.653 154.921 154.299 154.61 153.2 152.545C147.2 141.27 131.706 141.83 127.181 153.485C126.615 154.945 125.871 155.964 124.766 156.797C121.94 158.926 121.338 159.952 120.831 163.505C120.369 166.735 120.356 166.76 119.009 167.109C116.815 167.678 98.344 167.306 97.719 166.68C96.702 165.662 96.775 94.025 97.794 93.006C98.579 92.221 99.084 92.2 117.577 92.2H136.555L137.184 93.098C137.737 93.888 137.81 96.559 137.793 115.37C137.771 138.963 137.618 137.626 140.388 138.075C143.118 138.518 143 139.674 143 112.404C143 93.925 142.883 87.843 142.52 87.48C142.204 87.164 140.519 87 137.596 87C131.483 87 131.619 87.135 131.533 80.976C131.483 77.403 131.321 75.996 130.932 75.75C130.639 75.564 124.411 75.409 117.09 75.406L103.78 75.4L103.39 76.426ZM125.686 81.514C126.644 82.473 126.555 85.751 125.551 86.485C124.449 87.291 110.076 87.215 109.4 86.4C108.499 85.314 108.399 82.285 109.234 81.362C110.285 80.201 124.505 80.332 125.686 81.514ZM81.098 87.5C79.496 89.503 80.58 92.2 82.988 92.2C85.493 92.2 87.067 88.506 85.026 87.414C83.958 86.842 81.583 86.894 81.098 87.5ZM81.07 99.126C79.941 100.327 79.964 101.839 81.126 102.93C82.969 104.662 85.8 103.493 85.8 101C85.8 98.471 82.801 97.283 81.07 99.126ZM104.768 98.546C103.477 98.792 102.838 101.495 103.736 102.91C104.305 103.806 130.037 103.672 131.036 102.768C132.013 101.883 132.018 100.121 131.045 99.241C130.337 98.6 107.638 98 104.768 98.546ZM81.17 110.234C80.166 111.342 80.213 114.021 81.249 114.806C83.032 116.156 85.8 115.028 85.8 112.951C85.8 109.845 83.005 108.205 81.17 110.234ZM103.652 110.7C103.34 111.866 103.335 113.566 103.643 114.367C103.857 114.927 105.431 115 117.234 115H130.582L131.235 114.003C131.907 112.978 131.765 111.322 130.919 110.302C130.6 109.918 127.385 109.8 117.198 109.8H103.893L103.652 110.7ZM27.214 123.128C27.359 123.827 27.705 124.76 27.981 125.2C29.026 126.864 33.04 138.994 34.03 143.478C35.006 147.902 34.006 151.433 31.162 153.602C29.02 155.236 28.6 154.605 28.6 149.751C28.6 145.141 28.082 144.2 25.544 144.2C23.347 144.2 23.027 144.917 23.013 149.876C23.005 152.418 22.83 154.258 22.58 154.412C21.808 154.889 19.584 153.463 18.385 151.722C15.914 148.132 17.014 141.081 21.992 128.6C22.475 127.39 23.188 125.534 23.577 124.476C24.887 120.913 26.619 120.271 27.214 123.128ZM81.243 121.519C80.235 122.256 80.251 125.649 81.267 126.419C83.134 127.834 85.344 126.787 85.673 124.332C86.032 121.653 83.371 119.963 81.243 121.519ZM116.8 121.4L103.6 121.6L103.472 123.162C103.402 124.021 103.45 125.146 103.58 125.662L103.815 126.6L117.108 126.594C131.028 126.587 131.124 126.577 131.513 125.041C132.478 121.232 132.214 121.166 116.8 121.4ZM81.029 133.654C80.084 134.856 80.008 135.487 80.66 136.726C82.07 139.405 85.8 138.313 85.8 135.223C85.8 132.671 82.623 131.627 81.029 133.654ZM103.643 133.633C103.278 134.584 103.362 136.721 103.792 137.4C104.161 137.984 127.597 138.517 130.031 137.997C131.671 137.646 132.427 134.164 131.026 133.414C129.617 132.66 103.937 132.865 103.643 133.633ZM80.846 145.186C79.941 146.567 80.042 147.912 81.126 148.93C83.698 151.347 87.221 148.007 85.177 145.089C84.264 143.784 81.727 143.841 80.846 145.186ZM104.029 144.829C103.398 145.46 103.189 147.586 103.643 148.767C103.958 149.59 121.706 149.734 122.52 148.92C123.158 148.282 123.11 145.779 122.443 144.9C121.68 143.894 105.027 143.83 104.029 144.829ZM143.8 150.424C147.156 151.974 148.601 153.99 149.197 157.952C149.716 161.402 150.753 162.339 153.111 161.487C156.101 160.406 158.421 162.754 157.058 165.482C156.163 167.275 155.912 167.305 142 167.305C128.216 167.305 127.951 167.273 126.73 165.462C125.494 163.628 126.989 161 129.267 161C130.332 161 131.207 159.794 131.591 157.8C132.834 151.329 138.434 147.946 143.8 150.424ZM81.525 155.714C80.755 156.204 80.178 158.172 80.466 159.328C81.331 162.805 86.089 161.841 85.686 158.27C85.411 155.823 83.347 154.556 81.525 155.714ZM108.014 155.716C103.637 155.842 103.416 155.965 103.406 158.267C103.395 161.001 103.393 161 108.469 161C113.664 161 114.6 160.696 114.6 159.012C114.6 155.817 114.049 155.541 108.014 155.716Z" fill="#373441"/>
<path fill-rule="evenodd" clip-rule="evenodd" d="M93.6 0.972996L96.8 1.2L97 22.8C97.11 34.68 97.349 44.63 97.53 44.91C97.952 45.564 101.815 48.707 104.892 50.901C108.861 53.73 108.634 53.068 108.509 61.442L108.4 68.8L106.505 69.166C103.28 69.789 103.001 69.254 102.994 62.438C102.987 56.138 103.106 56.509 100.48 54.597C97.332 52.306 92.459 48.249 92.114 47.632C91.937 47.316 91.749 38.39 91.696 27.796C91.59 6.52599 91.529 6.045 89.225 8.158C88.459 8.86 81.698 13.445 61.604 26.89C57.206 29.832 53.111 32.682 52.504 33.223L51.4 34.206V49.359C51.4 67.276 52.081 65.05 45.4 68.983C44.63 69.436 42.47 70.781 40.6 71.972C38.73 73.164 35.94 74.907 34.4 75.848C32.86 76.788 30.925 78.077 30.1 78.712L28.6 79.867V91.185C28.6 103.505 28.663 103.167 26.267 103.647C25.405 103.819 24.662 103.678 23.905 103.2C22.957 102.6 22.888 102.594 23.424 103.16C23.767 103.522 24.979 104.173 26.117 104.605L28.187 105.392L28.893 104.314C29.52 103.358 29.613 101.928 29.717 91.616L29.833 79.996L31.096 79.198C31.791 78.759 32.999 78.065 33.78 77.655C34.561 77.245 35.344 76.66 35.52 76.355C35.696 76.05 36.076 75.8 36.365 75.8C36.654 75.8 37.569 75.26 38.4 74.6C39.231 73.94 40.145 73.4 40.432 73.4C40.72 73.4 41.19 73.069 41.477 72.665C41.765 72.26 42.49 71.808 43.089 71.66C43.688 71.512 44.498 71.059 44.889 70.655C45.757 69.757 48.101 68.916 48.398 69.396C48.822 70.082 48.61 164.634 48.183 165.432C47.796 166.154 47.237 166.2 38.786 166.2H29.8V163.8C29.8 161.507 29.844 161.4 30.8 161.4C31.35 161.4 32.16 161.04 32.6 160.6C33.04 160.16 33.575 159.8 33.789 159.8C34.339 159.8 37.8 156.538 37.8 156.021C37.8 155.785 38.151 155.373 38.58 155.105C39.009 154.837 39.486 153.939 39.641 153.109C39.795 152.279 40.207 151.16 40.557 150.622C41.412 149.309 41.396 143.869 40.534 142.538C40.199 142.022 39.812 140.494 39.673 139.142C39.424 136.712 38.735 134.6 38.192 134.6C38.037 134.6 37.8 133.659 37.664 132.509C37.528 131.359 37.082 129.964 36.673 129.409C36.264 128.854 35.802 127.592 35.645 126.604C35.488 125.617 35.033 124.447 34.633 124.004C34.233 123.562 33.797 122.486 33.664 121.613C33.531 120.74 33.085 119.57 32.674 119.013C32.262 118.456 31.803 117.343 31.652 116.541C31.502 115.738 31.047 114.658 30.642 114.141C30.236 113.623 29.781 112.638 29.631 111.95C29.051 109.292 26.755 108.266 24.685 109.739C23.571 110.532 21.398 113.8 21.984 113.8C22.094 113.8 22.549 113.084 22.996 112.208C24.785 108.702 27.72 109.28 29.051 113.4C29.3 114.17 29.747 115.25 30.044 115.8C30.549 116.733 31.48 119.036 32.864 122.772C33.184 123.637 33.796 125.112 34.223 126.05C34.65 126.989 35 127.942 35 128.17C35 128.398 35.438 129.713 35.974 131.092C41.817 146.139 40.606 155.157 32.17 159.415C28.709 161.162 27.198 164.638 29.08 166.52C29.715 167.155 89.843 167.219 91.026 166.586C91.783 166.181 91.8 165.316 91.8 126.794V87.415L92.7 87.231C93.195 87.13 95.52 86.966 97.866 86.868C103.317 86.64 103 86.953 103 81.802C103 79.41 103.176 76.99 103.39 76.426L103.78 75.4L117.09 75.406C131.113 75.413 131.212 75.424 131.505 77C131.69 77.994 131.691 77.993 131.746 76.914C131.836 75.11 131.099 75 118.886 75C106.5 75 105.213 74.824 104.88 73.083C104.597 71.603 105.553 69.949 106.884 69.615C108.982 69.088 109 69.018 109 61.229V53.957L107.7 52.767C106.242 51.431 103.76 49.532 102.092 48.474C101.482 48.087 100.177 46.998 99.192 46.054L97.4 44.337V22.949C97.4 -1.48 97.766 0.567997 93.42 0.672997L90.4 0.746998L93.6 0.972996ZM68.227 15.364C56.472 23.23 46.59 30.101 46.268 30.633C45.713 31.549 45.733 31.545 46.641 30.552C47.169 29.976 57.035 23.226 68.567 15.552C80.098 7.87799 89.728 1.468 89.967 1.306C90.217 1.136 90.231 1.023 90 1.037C89.78 1.05 79.982 7.49699 68.227 15.364ZM90.6 28.828V48.208L91.47 48.904C94.533 51.355 94.6 51.531 94.6 57.071V62.164L93.226 62.421C90.55 62.924 89.309 68.423 91.608 69.59C95.209 71.417 95.835 73.579 92.976 74.317C89.344 75.255 89.561 81.8 93.225 81.8C95.776 81.8 95.135 84.492 92.2 86.101L90.8 86.869L90.6 126.434L90.4 166L81.6 166.098C76.485 166.155 72.549 166.036 72.2 165.813C71.671 165.475 71.588 156.955 71.497 93.778L71.393 22.127L72.686 20.92C73.397 20.256 74.388 19.557 74.889 19.366C75.39 19.176 75.8 18.768 75.8 18.46C75.8 18.152 76.326 17.795 76.969 17.666C77.613 17.537 78.47 17.077 78.875 16.642C79.28 16.208 80.103 15.665 80.705 15.436C81.307 15.207 81.8 14.768 81.8 14.46C81.8 14.152 82.3 13.8 82.912 13.678C83.523 13.555 84.522 12.993 85.132 12.428C85.742 11.862 86.493 11.4 86.801 11.4C87.108 11.4 87.519 11.117 87.712 10.771C88.117 10.047 89.855 9.05199 90.3 9.28799C90.465 9.37599 90.6 18.168 90.6 28.828ZM81.2 28.488C78.852 29.06 77.923 33.8 79.889 35.177C82.646 37.109 87.4 35.379 87.4 32.444C87.4 29.01 85.094 27.539 81.2 28.488ZM84.914 29.738C86.806 30.939 85.535 35 83.267 35C80.797 35 79.113 30.988 81.065 29.752C81.747 29.319 84.24 29.311 84.914 29.738ZM45.4 46.771C45.4 63.233 45.575 62.085 42.811 63.793C42.035 64.273 41.4 64.751 41.4 64.855C41.4 65.164 43.8 63.674 44.84 62.719L45.8 61.838V46.819C45.8 38.559 45.71 31.8 45.6 31.8C45.49 31.8 45.4 38.537 45.4 46.771ZM80.6 40.056C77.979 41.086 78.424 46.484 81.205 47.402C85.52 48.826 89.388 44.343 86.704 41.029C85.909 40.048 82.147 39.448 80.6 40.056ZM85.026 41.414C86.277 42.083 85.887 45.327 84.44 46.294C82.037 47.898 79.073 43.922 80.969 41.637C81.569 40.914 83.857 40.789 85.026 41.414ZM79.982 51.982C77.457 54.507 79.423 59.4 82.963 59.4C86.774 59.4 88.879 54.375 86.078 51.965C84.477 50.588 81.367 50.597 79.982 51.982ZM84.874 53.07C86.709 54.793 85.64 57.8 83.193 57.8C80.565 57.8 79.298 55.012 81.07 53.126C82.161 51.964 83.673 51.941 84.874 53.07ZM79.889 63.223C77.815 64.675 78.811 69.346 81.375 70.192C85.92 71.692 89.705 66.236 86.157 63.3C85.055 62.387 81.15 62.339 79.889 63.223ZM84.44 63.706C85.965 64.724 86.254 67.837 84.911 68.777C82.773 70.275 80.418 69.171 80.418 66.671C80.418 64.16 82.653 62.513 84.44 63.706ZM96.587 63.984C98.142 65.857 97.233 69.4 95.198 69.4C92.359 69.4 90.942 67.531 91.874 65.013C92.415 63.548 95.641 62.844 96.587 63.984ZM36.3 67.846C34.937 68.719 34.495 69.306 35.7 68.643C36.618 68.139 38.056 67.027 37.8 67.019C37.69 67.016 37.015 67.388 36.3 67.846ZM32.8 70.012C31.235 71.295 31.657 71.286 33.4 70C34.145 69.45 34.585 69.006 34.378 69.014C34.17 69.022 33.46 69.471 32.8 70.012ZM27.414 73.416C23.897 75.638 22.636 76.769 23.127 77.26C23.237 77.37 23.433 77.132 23.562 76.73C23.691 76.329 25.103 75.232 26.698 74.293C29.45 72.673 31.835 71.014 31.4 71.021C31.29 71.023 29.496 72.101 27.414 73.416ZM80.611 74.645C78.683 75.415 78.178 79.979 79.889 81.177C82.755 83.185 87.4 81.375 87.4 78.251C87.4 74.786 84.337 73.159 80.611 74.645ZM85 75.8C87.523 78.323 84.081 82.556 81.212 80.458C80.184 79.706 80.219 76.375 81.264 75.583C82.33 74.775 84.077 74.877 85 75.8ZM96.669 75.662C98.451 77.275 97.28 81 94.99 81C92.313 81 91.362 79.805 91.743 76.919C91.97 75.194 95.231 74.361 96.669 75.662ZM22.778 90C22.778 96.82 22.832 99.666 22.899 96.325C22.966 92.984 22.966 87.404 22.899 83.925C22.833 80.446 22.778 83.18 22.778 90ZM131.501 80.4C131.505 81.28 131.587 81.593 131.683 81.095C131.779 80.598 131.775 79.878 131.675 79.495C131.575 79.113 131.496 79.52 131.501 80.4ZM109.236 81.361C108.757 81.889 108.596 82.592 108.706 83.661L108.866 85.2L108.933 83.549C109.03 81.156 109.349 81.037 116.028 80.9L122 80.777L115.962 80.688C110.471 80.608 109.862 80.669 109.236 81.361ZM125.124 81.466C125.983 82.129 126.162 85.082 125.398 86.002C124.593 86.973 110.003 86.88 109.432 85.9C109.208 85.515 109.019 85.389 109.012 85.62C108.977 86.823 110.055 87 117.404 87C122.755 87 125.025 86.859 125.479 86.5C126.904 85.372 126.566 81.549 125 81.086C124.591 80.965 124.631 81.086 125.124 81.466ZM131.493 83.4C131.493 84.17 131.575 84.485 131.676 84.1C131.776 83.715 131.776 83.085 131.676 82.7C131.575 82.315 131.493 82.63 131.493 83.4ZM131.8 85.497C131.8 86.647 133.185 87 137.694 87C140.541 87 142.206 87.166 142.52 87.48C143.265 88.225 143.207 136.564 142.46 137.586C141.746 138.562 139.096 138.186 138.1 136.968C137.292 135.979 137.14 136.492 137.924 137.564C138.242 137.999 139.166 138.362 140.27 138.486C143.574 138.859 143.4 140.313 143.4 112.373C143.4 83.523 144.105 86.6 137.491 86.6C133.35 86.6 133.003 86.539 132.423 85.711C131.923 84.998 131.8 84.955 131.8 85.497ZM80.6 86.056C79.466 86.502 79 87.557 79 89.676C79 94.901 86.649 95.2 87.255 89.999C87.637 86.722 84.155 84.659 80.6 86.056ZM85.026 87.414C85.986 87.928 86.068 90.04 85.177 91.311C84.164 92.758 81.609 92.565 80.79 90.98C79.335 88.167 82.094 85.845 85.026 87.414ZM97.8 93C97.01 93.79 97.001 94.268 97.096 129.7L97.192 165.6L97.396 129.533C97.508 109.697 97.75 93.317 97.933 93.133C98.665 92.401 135.841 92.513 136.656 93.25C137.361 93.889 137.405 95.026 137.496 114.962L137.593 136L137.7 115.035C137.793 96.756 137.729 93.951 137.194 93.135L136.582 92.2H117.591C99.133 92.2 98.578 92.222 97.8 93ZM80.758 97.172C78.721 98.059 78.258 102.092 79.965 104.078C82.05 106.501 86.632 105.167 87.234 101.962C87.968 98.045 84.555 95.519 80.758 97.172ZM104.6 98.078C102.214 98.93 102.487 103.867 104.914 103.746C105.993 103.691 105.994 103.69 105 103.505C103.477 103.222 102.754 100.639 103.756 99.057C104.339 98.137 130.012 98.305 131.04 99.236C131.458 99.614 131.8 99.726 131.8 99.485C131.8 97.962 130.4 97.799 117.611 97.832C110.785 97.849 104.93 97.96 104.6 98.078ZM85 99C86.682 100.682 85.464 103.8 83.126 103.8C81.747 103.8 80.2 102.349 80.2 101.056C80.2 98.679 83.336 97.336 85 99ZM130.802 102.998C130.403 103.439 130.262 103.8 130.489 103.8C130.992 103.8 131.99 102.657 131.721 102.388C131.615 102.282 131.202 102.556 130.802 102.998ZM112.1 103.699C115.235 103.767 120.365 103.767 123.5 103.699C126.635 103.632 124.07 103.576 117.8 103.576C111.53 103.576 108.965 103.632 112.1 103.699ZM79.889 109.223C78.791 109.992 78.583 114.126 79.592 115.135C81.064 116.607 86.139 116.208 87.026 114.552C89.09 110.695 83.619 106.61 79.889 109.223ZM84.44 109.706C85.965 110.724 86.254 113.837 84.911 114.777C82.824 116.239 80.522 115.14 80.457 112.652C80.392 110.172 82.644 108.507 84.44 109.706ZM103.39 110.426C102.882 111.762 102.893 113.653 103.414 114.626C103.811 115.367 104.387 115.4 117.04 115.4C130.455 115.4 131.8 115.263 131.8 113.897C131.8 113.355 131.677 113.398 131.177 114.111C130.345 115.299 104.094 115.543 103.643 114.367C103.335 113.565 103.34 111.866 103.653 110.695L103.896 109.789L117.336 109.895L130.777 110L131.282 111C131.629 111.685 131.79 111.788 131.794 111.329C131.811 109.456 131.388 109.4 117.162 109.4H103.78L103.39 110.426ZM20.708 116.386C20.262 117.597 20.038 118.5 20.211 118.393C20.574 118.169 21.867 114.534 21.658 114.325C21.581 114.248 21.154 115.176 20.708 116.386ZM79.8 121C78.826 121.974 78.681 125.61 79.568 126.824C80.343 127.883 85.41 127.962 86.442 126.93C87.657 125.714 87.671 122.435 86.466 121.23C85.095 119.859 81.08 119.72 79.8 121ZM25.365 121.524C25.016 121.786 24.51 122.45 24.24 123C23.869 123.755 24.042 123.657 24.946 122.6L26.143 121.2L26.514 122.2C27.229 124.127 27.403 124.39 27.176 123.2C26.859 121.534 26.184 120.911 25.365 121.524ZM85.046 121.846C86.773 123.573 85.418 127.017 83.024 126.987C81.259 126.965 80.533 126.08 80.533 123.951C80.533 121.074 83.085 119.885 85.046 121.846ZM103.48 121.48C102.891 122.069 102.848 125.169 103.414 126.226C103.811 126.967 104.387 127 117.04 127C130.852 127 131.837 126.885 131.754 125.286C131.711 124.471 131.691 124.464 131.507 125.2C131.17 126.551 130.793 126.588 117.108 126.594L103.815 126.6L103.58 125.662C103.45 125.146 103.402 124.021 103.472 123.162L103.6 121.6L116.8 121.392L130 121.184L116.98 121.092C107.282 121.023 103.838 121.122 103.48 121.48ZM130.7 121.432C131.085 121.656 131.421 122.236 131.446 122.72C131.484 123.426 131.53 123.457 131.679 122.881C131.884 122.091 131.163 120.993 130.451 121.012C130.203 121.019 130.315 121.208 130.7 121.432ZM17.887 123.288C17.435 124.34 16.957 125.74 16.826 126.4C16.647 127.302 16.741 127.202 17.202 126C17.54 125.12 18.098 123.8 18.442 123.068C18.787 122.335 18.988 121.654 18.889 121.555C18.79 121.457 18.339 122.236 17.887 123.288ZM27.4 124.727C27.4 124.895 27.76 125.738 28.2 126.6C28.64 127.462 29.007 128.4 29.016 128.684C29.025 128.968 29.485 130.19 30.038 131.4C31.224 133.996 31.06 133.156 29.568 129C28.599 126.301 27.4 123.938 27.4 124.727ZM22.193 128.072C21.293 130.407 21.295 130.529 22.207 128.872C22.67 128.031 22.988 127.164 22.915 126.944C22.841 126.724 22.516 127.231 22.193 128.072ZM14.829 131.629C14.681 132.215 14.638 132.772 14.732 132.866C14.827 132.96 15.024 132.558 15.171 131.971C15.319 131.385 15.362 130.828 15.268 130.734C15.173 130.64 14.976 131.042 14.829 131.629ZM20.638 132.097C20.369 132.924 20.047 133.87 19.924 134.2C19.774 134.601 19.833 134.667 20.102 134.4C20.59 133.914 21.55 131.016 21.304 130.771C21.207 130.674 20.908 131.271 20.638 132.097ZM80.76 131.971C79.289 132.612 79 133.234 79 135.763C79 140.507 86.348 141.08 87.226 136.404C87.94 132.594 84.596 130.301 80.76 131.971ZM84.911 133.223C86.858 134.586 85.538 138.207 83.1 138.194C81.776 138.187 81.267 137.88 80.66 136.726C79.233 134.015 82.361 131.437 84.911 133.223ZM103.414 133.374C102.724 134.663 102.921 136.921 103.8 137.8C104.566 138.566 105.133 138.6 117.311 138.6C130.778 138.6 131.844 138.458 131.773 136.677C131.752 136.166 131.639 136.222 131.308 136.909C130.695 138.18 130.635 138.185 116.686 138.087C102.946 137.991 103.418 138.082 103.406 135.533C103.393 132.842 102.539 133 117.069 133C125.499 133 130.568 133.152 131.126 133.422C131.97 133.83 131.974 133.823 131.224 133.222C129.895 132.158 103.989 132.299 103.414 133.374ZM31.02 134.05C31.009 134.297 31.289 135.287 31.643 136.25C31.997 137.212 32.535 138.81 32.839 139.8C33.363 141.508 33.38 141.523 33.178 140.101C32.96 138.572 31.055 133.232 31.02 134.05ZM18.281 139.445C17.997 140.355 17.845 141.178 17.943 141.276C18.188 141.521 19.096 138.688 18.931 138.192C18.857 137.972 18.565 138.536 18.281 139.445ZM12.025 141.162C11.642 142.577 11.414 144.065 11.518 144.467C11.665 145.037 11.718 144.991 11.754 144.262C11.779 143.745 12.087 142.337 12.437 141.132C12.787 139.927 12.995 138.861 12.898 138.765C12.801 138.668 12.408 139.746 12.025 141.162ZM17.177 143.612C16.756 146.42 17.144 150.116 17.944 150.912C18.598 151.564 18.599 151.529 17.965 150.253C17.432 149.183 17.336 148.174 17.497 145.353C17.719 141.458 17.599 140.802 17.177 143.612ZM80.76 143.171C78.62 144.103 78.18 148.144 80.018 149.982C82.278 152.242 86.747 150.867 87.252 147.757C87.884 143.862 84.563 141.516 80.76 143.171ZM23.392 144.41C23.114 144.745 22.997 145.131 23.134 145.267C23.27 145.403 23.495 145.219 23.633 144.857C24.329 143.045 28.064 144.373 28.593 146.62C28.897 147.909 28.921 147.927 28.959 146.882C29.047 144.471 24.878 142.619 23.392 144.41ZM34.052 145.6C34.214 147.06 34.059 148.167 33.476 149.7C33.036 150.855 32.823 151.709 33.001 151.599C34.106 150.917 34.911 146.022 34.186 144.4C33.946 143.864 33.902 144.259 34.052 145.6ZM103.464 144.819C102.944 145.961 102.84 148.454 103.3 148.738C103.465 148.84 103.539 148.16 103.465 147.226C103.227 144.242 103.366 144.2 113.386 144.2C121.113 144.2 122.143 144.275 122.367 144.857C122.505 145.219 122.73 145.403 122.866 145.267C124.027 144.107 121.968 143.8 113.015 143.8H103.928L103.464 144.819ZM137.6 144.399L135.6 144.944L137.6 144.691C140.132 144.372 140.746 144.372 143.2 144.693C144.349 144.844 144.859 144.816 144.4 144.628C142.783 143.967 139.58 143.859 137.6 144.399ZM85.177 145.089C87.221 148.007 83.698 151.347 81.126 148.93C80.042 147.912 79.941 146.567 80.846 145.186C81.727 143.841 84.264 143.784 85.177 145.089ZM146.119 145.419C148.687 146.45 151.746 149.508 153.163 152.461C154.091 154.394 155.452 155.802 156.389 155.799C156.615 155.798 156.242 155.457 155.561 155.041C154.815 154.586 154.049 153.607 153.639 152.581C152.475 149.672 147.577 144.95 145.801 145.025C145.465 145.04 145.606 145.213 146.119 145.419ZM22.734 148.6C22.734 150.25 22.805 150.925 22.891 150.1C22.978 149.275 22.978 147.925 22.891 147.1C22.805 146.275 22.734 146.95 22.734 148.6ZM123.093 147C123.093 147.77 123.175 148.085 123.276 147.7C123.376 147.315 123.376 146.685 123.276 146.3C123.175 145.915 123.093 146.23 123.093 147ZM131.264 147.427C130.248 148.322 129.032 149.627 128.563 150.327C127.874 151.356 127.974 151.3 129.088 150.032C129.845 149.17 131.17 147.868 132.032 147.138C132.895 146.409 133.49 145.809 133.356 145.806C133.222 145.803 132.281 146.532 131.264 147.427ZM11.446 149.2C11.421 149.86 11.931 151.48 12.58 152.8C13.767 155.216 15.794 157.969 15.798 157.17C15.799 156.933 15.365 156.33 14.832 155.83C13.767 154.829 12.225 151.583 11.778 149.4C11.496 148.021 11.491 148.018 11.446 149.2ZM122.368 148.992C122.141 149.219 118.093 149.433 112.788 149.5L103.6 149.616L112.851 149.708C120.664 149.786 122.179 149.707 122.6 149.2C123.154 148.533 122.981 148.379 122.368 148.992ZM28.661 151.251C28.58 154.516 29.205 155.095 31.182 153.587C31.962 152.992 32.6 152.426 32.6 152.329C32.6 152.06 31.702 152.627 30.702 153.528C29.524 154.588 29.248 154.23 28.961 151.267L28.722 148.8L28.661 151.251ZM139.9 149.676C140.285 149.776 140.915 149.776 141.3 149.676C141.685 149.575 141.37 149.493 140.6 149.493C139.83 149.493 139.515 149.575 139.9 149.676ZM137 150.4C135.694 151.147 136.151 151.155 137.854 150.416C138.594 150.094 138.93 149.831 138.6 149.83C138.27 149.829 137.55 150.086 137 150.4ZM144.757 151.164C145.173 151.498 145.623 151.823 145.757 151.887C146.462 152.222 147.936 154.315 148.417 155.662C148.737 156.56 148.972 156.867 148.981 156.4C149.009 154.988 146.646 151.796 145 151.025C144.07 150.589 144.053 150.598 144.757 151.164ZM134.178 152.5L132.8 154L134.3 152.622C135.696 151.338 135.984 151 135.678 151C135.612 151 134.937 151.675 134.178 152.5ZM18.983 152.484C20.03 154.648 23.284 155.034 22.888 152.946C22.724 152.078 22.704 152.09 22.654 153.1C22.625 153.705 22.441 154.2 22.246 154.2C21.595 154.2 19.762 153.101 19.156 152.346C18.591 151.643 18.581 151.652 18.983 152.484ZM126.6 154.103C126.6 154.342 126.111 155.137 125.514 155.869C124.621 156.964 124.592 157.059 125.351 156.404C126.429 155.475 127.165 154.231 126.832 153.899C126.705 153.771 126.6 153.863 126.6 154.103ZM132.266 155.397C131.973 156.058 131.824 156.825 131.935 157.1C132.046 157.375 132.151 157.231 132.168 156.78C132.186 156.329 132.4 155.76 132.645 155.515C132.89 155.27 133.024 154.873 132.944 154.632C132.864 154.391 132.558 154.735 132.266 155.397ZM79.889 155.223C77.609 156.82 78.896 161.509 81.747 161.991C86.412 162.779 89.293 158.597 86.336 155.329C85.47 154.373 81.203 154.302 79.889 155.223ZM84.764 155.924C85.981 156.814 86.106 159.941 84.957 160.745C82.322 162.591 79.458 160.205 80.624 157.136C81.303 155.351 83.215 154.792 84.764 155.924ZM103.667 155.667C103.52 155.813 103.403 156.128 103.406 156.367C103.41 156.635 103.529 156.616 103.72 156.316C103.917 156.005 105.46 155.784 108.014 155.699L112 155.567L107.967 155.484C105.748 155.438 103.813 155.52 103.667 155.667ZM112.922 155.685C114.582 156.002 115.284 159.806 113.826 160.586C113.401 160.814 110.974 161 108.434 161C103.308 161 103.67 161.211 103.27 158C103.141 156.971 103.111 157.017 103.06 158.326C102.945 161.243 103.224 161.4 108.525 161.4C114.384 161.4 115.195 161.011 114.895 158.345C114.663 156.285 114.023 155.379 112.851 155.454C112.058 155.505 112.063 155.521 112.922 155.685ZM158.624 156.788C161.288 158.176 162.685 160.404 162.97 163.722C163.193 166.315 163.247 166.425 164.682 167.193C165.953 167.874 166.184 168.214 166.312 169.593L166.46 171.2L166.53 169.508C166.596 167.92 166.505 167.768 165.048 167.024C163.519 166.245 163.493 166.192 163.33 163.631C163.101 160.038 159.733 155.749 157.2 155.825C156.98 155.832 157.621 156.265 158.624 156.788ZM16.97 158.303C17.503 158.906 18.133 159.403 18.37 159.408C18.606 159.412 19.655 159.952 20.7 160.608C22.991 162.047 23.622 165.815 21.7 166.588C21.148 166.809 21.04 166.959 21.42 166.975C22.508 167.019 23 166.095 22.994 164.02C22.986 161.463 22.881 161.315 19.994 159.798C18.677 159.106 17.24 158.24 16.8 157.873C16.288 157.446 16.349 157.6 16.97 158.303ZM131.4 158.511C131.4 158.902 131.116 159.667 130.768 160.211L130.136 161.2L130.968 160.256C131.709 159.415 132.124 157.8 131.6 157.8C131.49 157.8 131.4 158.12 131.4 158.511ZM149.067 159.038C149.003 160.406 149.888 161.8 150.82 161.8C151.017 161.8 150.789 161.527 150.313 161.194C149.761 160.807 149.391 160.048 149.291 159.094L149.134 157.6L149.067 159.038ZM121.827 159.171C121.325 159.706 121.009 160.381 121.126 160.671C121.289 161.082 121.344 161.071 121.368 160.626C121.386 160.31 121.791 159.635 122.27 159.126C122.748 158.617 123.049 158.2 122.939 158.2C122.829 158.2 122.329 158.637 121.827 159.171ZM126.665 162.779L125.852 164.158L126.74 165.476C127.228 166.201 127.982 166.841 128.414 166.897C129.064 166.981 129.044 166.932 128.297 166.611C126.813 165.974 126.34 164.434 127.124 162.789C127.975 161.005 127.716 160.999 126.665 162.779ZM156.618 162.126C156.608 162.416 156.764 162.958 156.964 163.332C157.533 164.396 156.444 166.59 155.319 166.646C154.612 166.682 154.566 166.736 155.119 166.879C156.741 167.3 158.006 164.766 157.155 162.8C156.87 162.14 156.628 161.837 156.618 162.126ZM97.501 166.2C97.59 166.53 98.099 166.833 98.631 166.874C99.395 166.932 99.431 166.901 98.8 166.728C98.36 166.607 97.851 166.303 97.67 166.054C97.451 165.754 97.394 165.804 97.501 166.2ZM120.034 166.5C119.87 166.665 115.205 166.905 109.667 167.032L99.6 167.265L109.681 167.232C117.176 167.208 119.89 167.072 120.261 166.7C120.535 166.425 120.664 166.2 120.547 166.2C120.429 166.2 120.199 166.335 120.034 166.5ZM0.421016 167.535C0.0190164 167.829 -0.209979 168.324 -0.0869792 168.635C0.0890208 169.08 0.144018 169.064 0.168018 168.561C0.186018 168.21 0.605017 167.727 1.10002 167.488C1.59502 167.249 1.80902 167.042 1.57602 167.027C1.34402 167.012 0.824016 167.241 0.421016 167.535ZM7.90002 167.298C10.265 167.369 14.135 167.369 16.5 167.298C18.865 167.228 16.93 167.17 12.2 167.17C7.47002 167.17 5.53502 167.228 7.90002 167.298ZM135.925 167.299C139.404 167.366 144.984 167.366 148.325 167.299C151.666 167.232 148.82 167.178 142 167.178C135.18 167.178 132.446 167.233 135.925 167.299Z" fill="#F1BF59"/>
<path fill-rule="evenodd" clip-rule="evenodd" d="M-0.233994 171.8C-0.538994 175.735 -0.0649937 182.88 0.543006 183.503C1.19201 184.169 5.51701 184.206 82.935 184.206C164.515 184.206 166.185 184.179 166.209 182.886C166.446 170.302 166.508 171.092 165.367 172.233C164.616 172.984 162.889 173 83.374 173C1.208 173 1.01201 172.997 0.10601 171.64C-0.0859902 171.352 -0.203994 171.407 -0.233994 171.8Z" fill="#53DCF4"/>
<path fill-rule="evenodd" clip-rule="evenodd" d="M90.725 0.185006C90.024 0.352006 88.494 1.145 87.325 1.947C85.04 3.516 84.745 3.71501 81.4 5.94201C80.19 6.74701 78.84 7.64701 78.4 7.94201C77.96 8.23601 76.61 9.13601 75.4 9.94201C74.19 10.747 72.84 11.647 72.4 11.942C71.96 12.236 70.61 13.136 69.4 13.942C68.19 14.747 66.84 15.647 66.4 15.942C65.96 16.236 64.61 17.136 63.4 17.942C62.19 18.747 60.84 19.647 60.4 19.942C59.96 20.236 58.61 21.136 57.4 21.942C56.19 22.747 54.84 23.647 54.4 23.942C53.96 24.236 52.544 25.18 51.254 26.039C44.114 30.791 44.902 28.383 44.95 45.281C44.996 61.365 44.94 61.907 43.134 62.902C42.438 63.286 41.133 64.009 40.234 64.508C39.335 65.008 38.6 65.579 38.6 65.777C38.6 65.976 37.992 66.339 37.248 66.584C36.505 66.829 35.577 67.383 35.186 67.815C34.796 68.247 34.234 68.6 33.938 68.6C33.642 68.6 33.079 68.915 32.688 69.3C32.296 69.685 31.306 70.312 30.488 70.694C29.669 71.075 29 71.558 29 71.767C29 71.975 28.595 72.269 28.1 72.418C22.553 74.096 22.2 75.163 22.2 90.279V103.106L23.628 104.453C24.414 105.194 25.224 105.8 25.428 105.8C26.376 105.8 25.719 107.895 24.411 109.044C22.891 110.378 20.863 113.71 20.419 115.6C20.264 116.26 19.898 117.07 19.606 117.4C19.314 117.73 18.863 118.794 18.605 119.764C18.346 120.734 17.894 121.904 17.6 122.364C17.306 122.824 16.856 123.992 16.601 124.961C16.345 125.929 15.791 127.366 15.368 128.155C14.946 128.943 14.6 129.958 14.6 130.409C14.6 130.861 14.242 131.934 13.804 132.793C13.365 133.652 12.821 135.382 12.593 136.637C12.366 137.891 11.875 139.521 11.503 140.259C9.677 143.876 11.201 154.735 13.667 155.681C13.96 155.794 14.2 156.106 14.2 156.376C14.2 157.234 17.917 160.021 20.719 161.263C22.218 161.928 22.236 161.961 22.119 163.968L22 166L11.161 166.2C2.79299 166.354 0.170001 166.525 -0.338999 166.949C-1.067 167.554 -1.318 172.2 -0.623003 172.2C-0.416003 172.2 -0.253003 171.265 -0.262003 170.123C-0.286003 166.965 -0.411003 167 10.85 167C22.557 167 22.6 166.989 22.6 164.011C22.6 161.844 20.399 159.444 18.379 159.408C18.147 159.403 16.992 158.455 15.812 157.3C11.361 152.945 10.186 147.456 12.192 140.4C13.518 135.738 15.871 128.464 16.203 128C16.361 127.78 16.617 127.06 16.773 126.4C16.928 125.74 17.511 124.12 18.067 122.8C18.624 121.48 19.448 119.5 19.899 118.4C22.927 111.013 24.686 108.601 26.794 108.941C28 109.136 29.323 110.54 29.631 111.95C29.781 112.638 30.236 113.623 30.642 114.141C31.047 114.658 31.502 115.738 31.652 116.541C31.803 117.343 32.262 118.456 32.674 119.013C33.085 119.57 33.531 120.74 33.664 121.613C33.797 122.486 34.233 123.562 34.633 124.004C35.033 124.447 35.488 125.617 35.645 126.604C35.802 127.592 36.264 128.854 36.673 129.409C37.082 129.964 37.528 131.359 37.664 132.509C37.8 133.659 38.037 134.6 38.192 134.6C38.735 134.6 39.424 136.712 39.673 139.142C39.812 140.494 40.199 142.022 40.534 142.538C41.396 143.869 41.412 149.309 40.557 150.622C40.207 151.16 39.795 152.279 39.641 153.109C39.486 153.939 39.009 154.837 38.58 155.105C38.151 155.373 37.8 155.785 37.8 156.021C37.8 156.538 34.339 159.8 33.789 159.8C33.575 159.8 33.04 160.16 32.6 160.6C32.16 161.04 31.35 161.4 30.8 161.4C29.844 161.4 29.8 161.507 29.8 163.8V166.2H38.786C47.237 166.2 47.796 166.154 48.183 165.432C48.61 164.634 48.822 70.082 48.398 69.396C48.101 68.916 45.757 69.757 44.889 70.655C44.498 71.059 43.688 71.512 43.089 71.66C42.49 71.808 41.765 72.26 41.477 72.665C41.19 73.069 40.72 73.4 40.432 73.4C40.145 73.4 39.231 73.94 38.4 74.6C37.569 75.26 36.654 75.8 36.365 75.8C36.076 75.8 35.696 76.05 35.52 76.355C35.344 76.66 34.561 77.245 33.78 77.655C32.999 78.065 31.791 78.759 31.096 79.198L29.833 79.996L29.717 91.616C29.613 101.928 29.52 103.358 28.893 104.314L28.187 105.392L26.093 104.602C22.463 103.234 22.6 103.797 22.6 90.215C22.6 74.718 21.23 77.239 33.977 69.285C42.583 63.914 44.848 62.442 45.094 62.059C45.256 61.806 45.391 54.976 45.394 46.88C45.399 34.564 45.498 31.97 46.002 30.996C46.436 30.157 52.659 25.786 68.302 15.332L90 0.832005L93.108 0.673005C97.827 0.432005 97.4 -1.778 97.4 22.918V44.337L99.192 46.054C100.177 46.998 101.482 48.087 102.092 48.474C103.76 49.532 106.242 51.431 107.7 52.767L109 53.957V61.229C109 69.018 108.982 69.088 106.884 69.615C105.553 69.949 104.597 71.603 104.88 73.083C105.213 74.824 106.5 75 118.886 75C132.872 75 131.8 74.558 131.8 80.325C131.8 86.63 131.773 86.6 137.561 86.6C144.083 86.6 143.4 83.579 143.4 112.442C143.4 140.305 143.574 138.859 140.27 138.486C137.246 138.146 137.4 139.386 137.4 115.386C137.4 94.968 137.364 93.891 136.656 93.25C135.589 92.285 98.406 92.428 97.791 93.4C97.28 94.209 97.28 165.39 97.791 166.2C98.661 167.578 120.601 167.174 120.276 165.786C119.697 163.31 121.105 159.755 123.482 157.69C125.243 156.161 126.19 154.939 127.01 153.139C132.419 141.266 148.559 140.988 153.709 152.68C154.459 154.383 154.829 154.702 157.642 156.08C161.731 158.082 163.091 159.888 163.33 163.631C163.493 166.203 163.513 166.242 165.082 167.042C166.617 167.825 166.667 167.914 166.583 169.726C166.466 172.275 166.613 173.008 167 171.8C167.937 168.873 167.349 167.33 164.9 166.286C163.892 165.856 163.8 165.635 163.8 163.635C163.8 159.766 160.079 155 157.058 155C156.076 155 154.624 153.555 153.925 151.883C152.11 147.537 145.302 143.015 140.556 143.003C135.177 142.988 127.508 148.43 126.463 153.004C126.247 153.946 125.473 154.858 122.086 158.158C120.641 159.565 119.98 161.177 119.545 164.348C119.365 165.664 119.104 166.207 118.646 166.226C112.914 166.453 98.361 166.063 98.115 165.675C97.948 165.414 97.809 149.143 97.806 129.518L97.8 93.836L99.1 93.603C99.815 93.475 108.5 93.422 118.4 93.485L136.4 93.6L136.6 115.686C136.826 140.601 136.567 138.844 140.074 139.26C144.077 139.734 143.8 141.727 143.8 112.48C143.8 93.32 143.683 87.043 143.32 86.68C143.003 86.363 141.305 86.2 138.334 86.2C132.884 86.2 133 86.32 133 80.68C133 77.267 132.883 76.559 132.171 75.654L131.342 74.6H119.745C107.878 74.6 106.6 74.449 106.6 73.046C106.6 71.645 107.423 69.98 108.307 69.592C109.181 69.208 109.202 69.036 109.309 61.434L109.418 53.669L108.285 52.562C107.662 51.953 106.173 50.734 104.976 49.855C101.596 47.37 101.014 46.903 99.352 45.347L97.8 43.894V22.469V1.045L96.911 0.423005C95.969 -0.236995 92.981 -0.351994 90.725 0.185006ZM89.032 9.635C88.5 9.913 87.906 10.424 87.712 10.771C87.519 11.117 87.108 11.4 86.801 11.4C86.493 11.4 85.742 11.862 85.132 12.428C84.522 12.993 83.523 13.555 82.912 13.678C82.3 13.8 81.8 14.152 81.8 14.46C81.8 14.768 81.307 15.207 80.705 15.436C80.103 15.665 79.28 16.208 78.875 16.642C78.47 17.077 77.613 17.537 76.969 17.666C76.326 17.795 75.8 18.152 75.8 18.46C75.8 18.768 75.39 19.176 74.889 19.366C74.388 19.557 73.397 20.256 72.686 20.92L71.393 22.127L71.497 93.778C71.588 156.955 71.671 165.475 72.2 165.813C72.549 166.036 76.485 166.155 81.6 166.098L90.4 166L90.6 126.434L90.8 86.869L92.2 86.101C95.135 84.492 95.776 81.8 93.225 81.8C91.331 81.8 90.6 80.748 90.6 78.026C90.6 75.252 90.847 74.867 92.976 74.317C95.835 73.579 95.209 71.417 91.608 69.59C89.309 68.423 90.55 62.924 93.226 62.421L94.6 62.164V57.071C94.6 51.531 94.533 51.355 91.47 48.904L90.6 48.208V28.828C90.6 8.68501 90.61 8.81 89.032 9.635ZM85.369 28.649C89.466 30.077 87.656 35.8 83.107 35.8C79.733 35.8 79 35.165 79 32.239C79 28.706 81.496 27.299 85.369 28.649ZM86.704 41.029C89.388 44.343 85.52 48.826 81.205 47.402C78.424 46.484 77.979 41.086 80.6 40.056C82.147 39.448 85.909 40.048 86.704 41.029ZM86.078 51.965C88.879 54.375 86.774 59.4 82.963 59.4C79.423 59.4 77.457 54.507 79.982 51.982C81.367 50.597 84.477 50.588 86.078 51.965ZM86.157 63.3C89.705 66.236 85.92 71.692 81.375 70.192C78.811 69.346 77.815 64.675 79.889 63.223C81.15 62.339 85.055 62.387 86.157 63.3ZM85.771 74.785C89.44 76.682 87.496 81.8 83.107 81.8C79.742 81.8 78.998 81.161 79.006 78.277C79.016 74.543 82.163 72.919 85.771 74.785ZM109.48 81.48C108.891 82.069 108.85 84.772 109.414 85.826C109.974 86.873 124.543 87.033 125.398 86.002C126.151 85.095 125.985 82.125 125.147 81.512C124.186 80.809 110.18 80.78 109.48 81.48ZM124.367 81.643C125.023 81.894 125.201 83.609 124.748 85.3C124.509 86.192 124.439 86.2 117.206 86.2H109.905L109.682 84.829C109.188 81.784 109.079 81.833 116.744 81.699C120.515 81.634 123.63 81.539 123.667 81.49C123.704 81.44 124.019 81.509 124.367 81.643ZM86.704 87.029C88.923 89.769 86.787 93.4 82.956 93.4C79.429 93.4 77.392 89.581 79.5 86.922C80.706 85.402 85.443 85.471 86.704 87.029ZM85.169 97.161C86.74 97.818 87.625 99.875 87.234 101.962C86.32 106.833 78.989 106.224 79.005 101.278C79.019 97.206 81.427 95.598 85.169 97.161ZM103.475 97.816C102.769 98.474 102.6 99.08 102.6 100.954C102.6 104.928 102.052 104.78 117.266 104.916L130.248 105.032L131.624 103.656C133.548 101.732 133.246 98.602 131.022 97.412C129.357 96.521 104.474 96.885 103.475 97.816ZM130.911 98.423C131.92 99.129 132.196 102.444 131.32 103.32C130.382 104.258 103.924 103.979 103.414 103.026C102.469 101.261 103.104 98.612 104.6 98.078C106.24 97.491 130.027 97.803 130.911 98.423ZM85.98 109.224C88.331 110.764 87.654 115.085 84.948 115.814C81.041 116.866 79 115.624 79 112.194C79 108.81 82.849 107.172 85.98 109.224ZM103.8 109.116C102.916 109.562 102.786 109.912 102.68 112.145C102.494 116.05 101.488 115.8 117.379 115.8H131.261L132.185 114.816C133.432 113.488 133.14 110.823 131.602 109.501C130.339 108.414 105.865 108.075 103.8 109.116ZM131.171 110.029C132.129 110.986 132.028 114.45 131.026 114.986C129.405 115.854 103.893 115.521 103.414 114.626C102.893 113.653 102.882 111.762 103.39 110.426L103.78 109.4H117.162C128.793 109.4 130.625 109.482 131.171 110.029ZM86.466 121.23C89.168 123.931 87.144 127.6 82.953 127.6C79.543 127.6 79 127.095 79 123.924C79 120.18 83.715 118.479 86.466 121.23ZM104.6 120.538C104.05 120.614 103.375 120.861 103.1 121.087C102.409 121.655 102.433 126.364 103.13 126.942C104.198 127.828 130.995 127.583 131.899 126.678C133.163 125.414 133.267 122.955 132.114 121.614L131.141 120.484L118.371 120.442C111.347 120.419 105.15 120.462 104.6 120.538ZM131.32 121.48C132.15 122.31 131.932 126.101 131.026 126.586C129.405 127.454 103.893 127.121 103.414 126.226C102.848 125.169 102.891 122.069 103.48 121.48C104.167 120.793 130.633 120.793 131.32 121.48ZM24.919 122.689C24.373 123.41 23.553 125.08 23.098 126.4C21.021 132.422 20.573 133.652 20.186 134.4C19.82 135.106 19.301 136.903 17.756 142.8C16.582 147.279 18.128 152.474 21.011 153.744C22.656 154.468 22.632 154.526 22.722 149.505C22.812 144.42 23.111 143.8 25.467 143.8C28.138 143.8 28.859 144.918 28.921 149.157C29.001 154.641 29.2 154.931 31.462 152.853C35.264 149.361 34.751 143.933 29.245 129.4C25.791 120.284 26.228 120.961 24.919 122.689ZM27.715 127.115C27.929 127.382 28.398 128.626 28.757 129.88C29.116 131.133 29.576 132.262 29.778 132.387C29.981 132.512 30.359 133.646 30.619 134.907C30.879 136.168 31.358 137.719 31.683 138.353C33.088 141.089 33.572 148.233 32.498 150.4C30.545 154.345 29.414 153.717 29.406 148.682C29.399 144.127 28.662 143 25.695 143C22.713 143 22.429 143.462 22.2 148.698L22 153.262L20.7 152.73C19.985 152.437 19.4 151.952 19.4 151.653C19.4 151.353 19.04 150.65 18.6 150.091C17.593 148.811 17.487 144.551 18.415 142.69C18.753 142.012 19.225 140.32 19.464 138.929C19.702 137.538 20.14 136.123 20.435 135.784C20.731 135.445 21.179 134.185 21.431 132.984C21.684 131.783 22.126 130.53 22.415 130.2C22.704 129.87 23.165 128.706 23.439 127.613C23.714 126.521 24.402 124.874 24.969 123.954L26 122.281L26.663 124.455C27.028 125.651 27.502 126.848 27.715 127.115ZM85.689 132.189C89.221 134.343 87.371 139.4 83.05 139.4C79.578 139.4 77.919 136.682 79.26 133.188C79.904 131.51 83.627 130.932 85.689 132.189ZM104.6 132.085C102.575 132.473 101.688 136.399 103.167 138.424C103.75 139.22 126.456 139.874 130.119 139.199C132.767 138.712 133.926 134.809 131.968 132.97L130.937 132L118.268 131.947C111.301 131.917 105.15 131.98 104.6 132.085ZM131.026 133.014C132.21 133.647 132.129 137.124 130.911 137.977C129.371 139.056 104.896 138.896 103.8 137.8C102.921 136.921 102.724 134.663 103.414 133.374C103.893 132.479 129.405 132.146 131.026 133.014ZM85.193 142.997C87.543 143.891 88.015 148.302 85.951 150.076C82.278 153.232 77.443 149.122 79.26 144.388C79.804 142.97 83.093 142.199 85.193 142.997ZM103.223 143.889C102.858 144.409 102.6 145.617 102.6 146.8C102.6 150.652 102.457 150.6 112.947 150.6C123.934 150.6 124.01 150.571 123.715 146.49C123.458 142.937 123.653 143 112.946 143C103.995 143 103.835 143.015 103.223 143.889ZM122.57 144.364C123.416 145.383 123.558 147.699 122.842 148.792L122.182 149.8H113.135C104.988 149.8 104.035 149.73 103.557 149.1C102.895 148.228 102.851 146.166 103.464 144.819L103.928 143.8H113.015C120.349 143.8 122.192 143.909 122.57 144.364ZM137.515 150.529C135.542 151.331 133 153.654 133 154.655C133 155.039 132.83 155.458 132.623 155.586C132.416 155.714 132.12 156.658 131.966 157.684C131.641 159.852 130.327 161.4 128.812 161.4C127.386 161.4 126.244 163.7 126.926 165.197C127.685 166.864 128.79 167 141.576 167C155.582 167 156.095 166.942 156.79 165.289C157.86 162.743 155.862 160.788 153.217 161.794C150.962 162.651 149.009 161.288 148.982 158.838C148.916 152.647 142.947 148.322 137.515 150.529ZM142.709 151.185C144.265 151.448 147 153.492 147 154.392C147 154.673 147.25 155.109 147.555 155.362C147.86 155.615 148.23 156.948 148.377 158.324C148.676 161.119 148.787 161.364 150.189 162.323C151.44 163.179 152.534 163.184 153.47 162.337C155.044 160.912 157.283 163.376 156.22 165.363C155.778 166.188 155.569 166.2 141.818 166.2H127.864L127.615 165.069C127.265 163.477 127.984 161.8 129.016 161.8C130.953 161.8 132.642 159.498 133.191 156.112C133.642 153.324 137.935 150.249 140.6 150.805C140.93 150.874 141.879 151.045 142.709 151.185ZM86.336 155.329C89.293 158.597 86.412 162.779 81.747 161.991C78.896 161.509 77.609 156.82 79.889 155.223C81.203 154.302 85.47 154.373 86.336 155.329ZM103.262 155.331C102.467 156.209 102.335 160.575 103.08 161.32C103.877 162.117 113.969 161.974 114.789 161.154C115.899 160.044 115.481 155.762 114.2 155.116C112.497 154.257 104.084 154.423 103.262 155.331ZM114.2 156C115.216 157.225 115.191 160.021 114.157 160.745C112.658 161.795 103.988 161.699 103.414 160.626C102.893 159.653 102.882 157.762 103.39 156.426C103.873 155.157 113.196 154.79 114.2 156Z" fill="#FBDF8C"/>
</g>
<defs>
<clipPath id="clip0_2_2">
<rect width="167" height="184" fill="white"/>
</clipPath>
</defs>
</svg>
